<?xml version="1.0" encoding="UTF-8"?>
<!DOCTYPE svg PUBLIC "-//W3C//DTD SVG 1.1//EN" "http://www.w3.org/Graphics/SVG/1.1/DTD/svg11.dtd">
<svg xmlns="http://www.w3.org/2000/svg" version="1.1" width="300px" height="269px" style="shape-rendering:geometricPrecision; text-rendering:geometricPrecision; image-rendering:optimizeQuality; fill-rule:evenodd; clip-rule:evenodd" xmlns:xlink="http://www.w3.org/1999/xlink">
<g><path style="opacity:1" fill="#aba5a4" d="M 151.5,20.5 C 153.475,30.4459 154.142,40.7792 153.5,51.5C 152.833,59.8333 152.167,68.1667 151.5,76.5C 151.5,57.8333 151.5,39.1667 151.5,20.5 Z"/></g>
<g><path style="opacity:0.999" fill="#2e3192" d="M 299.5,109.5 C 299.5,117.167 299.5,124.833 299.5,132.5C 295.249,149.814 286.249,164.314 272.5,176C 258.602,187.618 242.935,196.118 225.5,201.5C 225.5,200.833 225.5,200.167 225.5,199.5C 226.338,199.158 226.672,198.492 226.5,197.5C 226.5,197.167 226.5,196.833 226.5,196.5C 226.5,194.5 225.5,193.5 223.5,193.5C 223.082,192.778 222.416,192.278 221.5,192C 211.348,190.854 201.348,189.687 191.5,188.5C 212.683,183.328 231.183,173.328 247,158.5C 265.568,136.036 266.235,113.036 249,89.5C 230.084,70.4581 207.25,58.9581 180.5,55C 173.221,53.6198 165.888,52.7864 158.5,52.5C 158.5,45.5 158.5,38.5 158.5,31.5C 197.321,29.9549 232.988,39.7882 265.5,61C 282.644,73.276 293.977,89.4426 299.5,109.5 Z"/></g>
<g><path style="opacity:1" fill="#fcfcfd" d="M 158.5,52.5 C 165.888,52.7864 173.221,53.6198 180.5,55C 207.25,58.9581 230.084,70.4581 249,89.5C 266.235,113.036 265.568,136.036 247,158.5C 231.183,173.328 212.683,183.328 191.5,188.5C 181.438,188.4 171.438,187.734 161.5,186.5C 161.5,179.833 161.5,173.167 161.5,166.5C 163.099,166.768 164.432,166.434 165.5,165.5C 185.368,163.717 202.534,156.051 217,142.5C 229.667,124.142 227.167,107.975 209.5,94C 194.437,83.6351 177.771,78.1351 159.5,77.5C 159.309,69.1597 158.976,60.8263 158.5,52.5 Z"/></g>
<g><path style="opacity:1" fill="#2e3192" d="M 139.5,54.5 C 139.5,61.1667 139.5,67.8333 139.5,74.5C 108.524,77.2081 80.8571,88.0414 56.5,107C 28.9078,134.938 29.9078,161.938 59.5,188C 64.4453,192.116 69.7786,195.616 75.5,198.5C 75.5,199.167 75.8333,199.5 76.5,199.5C 77.8195,200.942 79.4862,201.608 81.5,201.5C 81.8417,202.338 82.5084,202.672 83.5,202.5C 100.145,210.748 117.811,215.748 136.5,217.5C 137.919,218.451 139.585,218.784 141.5,218.5C 141.5,222.167 141.5,225.833 141.5,229.5C 141.5,230.833 141.5,232.167 141.5,233.5C 141.5,235.167 141.5,236.833 141.5,238.5C 141.5,238.833 141.5,239.167 141.5,239.5C 141.167,239.5 140.833,239.5 140.5,239.5C 99.923,240.693 63.2563,229.526 30.5,206C 14.9838,193.447 4.65049,177.614 -0.5,158.5C -0.5,150.833 -0.5,143.167 -0.5,135.5C 4.65049,116.386 14.9838,100.553 30.5,88C 62.9652,64.6812 99.2986,53.5146 139.5,54.5 Z"/></g>
<g><path style="opacity:0.866" fill="#696c6e" d="M 150.5,-0.5 C 150.833,-0.5 151.167,-0.5 151.5,-0.5C 153.382,4.26501 155.548,8.93168 158,13.5C 158.499,19.4908 158.666,25.4908 158.5,31.5C 158.5,38.5 158.5,45.5 158.5,52.5C 158.976,60.8263 159.309,69.1597 159.5,77.5C 159.897,106.84 160.563,136.174 161.5,165.5C 162.833,165.5 164.167,165.5 165.5,165.5C 164.432,166.434 163.099,166.768 161.5,166.5C 161.5,173.167 161.5,179.833 161.5,186.5C 160.167,186.5 158.833,186.5 157.5,186.5C 157.815,182.629 157.482,178.962 156.5,175.5C 156.786,165.115 156.452,154.782 155.5,144.5C 155.83,125.326 155.497,106.326 154.5,87.5C 154.472,75.5446 154.139,63.5446 153.5,51.5C 154.142,40.7792 153.475,30.4459 151.5,20.5C 151.559,17.3095 151.893,14.1429 152.5,11C 151.75,7.17031 151.083,3.33697 150.5,-0.5 Z"/></g>
<g><path style="opacity:0.998" fill="#010101" d="M 149.5,76.5 C 149.5,80.1667 149.5,83.8333 149.5,87.5C 147.833,87.5 146.167,87.5 144.5,87.5C 144.472,77.8079 144.972,68.1412 146,58.5C 147.011,57.6634 148.178,57.33 149.5,57.5C 149.5,63.8333 149.5,70.1667 149.5,76.5 Z"/></g>
<g><path style="opacity:1" fill="#151a1a" d="M 143.5,10.5 C 143.959,14.8202 145.792,15.4868 149,12.5C 149.333,13.8333 149.667,15.1667 150,16.5C 150.829,36.6709 150.662,56.6709 149.5,76.5C 149.5,70.1667 149.5,63.8333 149.5,57.5C 148.178,57.33 147.011,57.6634 146,58.5C 144.972,68.1412 144.472,77.8079 144.5,87.5C 146.167,87.5 147.833,87.5 149.5,87.5C 150.167,87.5 150.5,87.8333 150.5,88.5C 148.5,88.5 146.5,88.5 144.5,88.5C 143.938,103.838 143.272,119.172 142.5,134.5C 144.833,134.5 147.167,134.5 149.5,134.5C 149.5,134.833 149.5,135.167 149.5,135.5C 147.167,135.5 144.833,135.5 142.5,135.5C 142.543,146.514 142.209,157.514 141.5,168.5C 139.446,168.635 137.779,167.968 136.5,166.5C 137.315,154.185 137.649,141.852 137.5,129.5C 138.147,112.174 138.48,94.8408 138.5,77.5C 139.11,76.609 139.443,75.609 139.5,74.5C 139.5,67.8333 139.5,61.1667 139.5,54.5C 139.436,40.6179 139.936,26.9512 141,13.5C 141.377,12.0577 142.21,11.0577 143.5,10.5 Z"/></g>
<g><path style="opacity:1" fill="#fcfcfd" d="M 139.5,74.5 C 139.443,75.609 139.11,76.609 138.5,77.5C 121.884,77.6559 106.55,82.1559 92.5,91C 66.8654,110.318 66.1988,130.318 90.5,151C 102.947,159.315 116.614,164.149 131.5,165.5C 132.568,166.434 133.901,166.768 135.5,166.5C 135.5,168.167 135.5,169.833 135.5,171.5C 135.5,172.167 135.5,172.833 135.5,173.5C 134.515,177.634 134.182,181.968 134.5,186.5C 116.045,187.406 97.7121,189.073 79.5,191.5C 77.7697,192.026 76.4363,193.026 75.5,194.5C 75.5,195.833 75.5,197.167 75.5,198.5C 69.7786,195.616 64.4453,192.116 59.5,188C 29.9078,161.938 28.9078,134.938 56.5,107C 80.8571,88.0414 108.524,77.2081 139.5,74.5 Z"/></g>
<g><path style="opacity:1" fill="#303292" d="M 138.5,77.5 C 138.48,94.8408 138.147,112.174 137.5,129.5C 136.614,141.334 135.948,153.334 135.5,165.5C 134.167,165.5 132.833,165.5 131.5,165.5C 116.614,164.149 102.947,159.315 90.5,151C 66.1988,130.318 66.8654,110.318 92.5,91C 106.55,82.1559 121.884,77.6559 138.5,77.5 Z"/></g>
<g><path style="opacity:1" fill="#2f3192" d="M 159.5,77.5 C 177.771,78.1351 194.437,83.6351 209.5,94C 227.167,107.975 229.667,124.142 217,142.5C 202.534,156.051 185.368,163.717 165.5,165.5C 164.167,165.5 162.833,165.5 161.5,165.5C 160.563,136.174 159.897,106.84 159.5,77.5 Z"/></g>
<g><path style="opacity:1" fill="#040404" d="M 150.5,88.5 C 150.598,103.846 150.264,119.179 149.5,134.5C 147.167,134.5 144.833,134.5 142.5,134.5C 143.272,119.172 143.938,103.838 144.5,88.5C 146.5,88.5 148.5,88.5 150.5,88.5 Z"/></g>
<g><path style="opacity:1" fill="#f8f8f8" d="M 153.5,51.5 C 154.139,63.5446 154.472,75.5446 154.5,87.5C 154.833,103.181 154.499,118.848 153.5,134.5C 152.501,124.188 152.168,113.855 152.5,103.5C 152.374,94.4906 152.041,85.4906 151.5,76.5C 152.167,68.1667 152.833,59.8333 153.5,51.5 Z"/></g>
<g><path style="opacity:1" fill="#fafafc" d="M 122.5,137.5 C 122.666,129.826 122.5,122.159 122,114.5C 121.209,115.745 120.709,117.078 120.5,118.5C 118.308,124.409 116.308,130.409 114.5,136.5C 111.232,137.487 107.898,137.82 104.5,137.5C 102.201,130.573 100.201,123.573 98.5,116.5C 98.2172,115.711 97.7172,115.044 97,114.5C 96.5003,122.159 96.3336,129.826 96.5,137.5C 93.5,137.5 90.5,137.5 87.5,137.5C 87.5,127.167 87.5,116.833 87.5,106.5C 92.8333,106.5 98.1667,106.5 103.5,106.5C 105.637,112.008 107.637,117.675 109.5,123.5C 111.498,117.839 113.498,112.172 115.5,106.5C 121.128,105.505 126.794,105.171 132.5,105.5C 132.5,116.167 132.5,126.833 132.5,137.5C 129.167,137.5 125.833,137.5 122.5,137.5 Z"/></g>
<g><path style="opacity:1" fill="#fcfcfd" d="M 205.5,106.5 C 216.139,108.936 218.139,114.436 211.5,123C 208.392,124.759 205.059,125.592 201.5,125.5C 197.833,125.5 194.167,125.5 190.5,125.5C 190.5,129.5 190.5,133.5 190.5,137.5C 186.167,137.5 181.833,137.5 177.5,137.5C 177.5,127.167 177.5,116.833 177.5,106.5C 186.833,106.5 196.167,106.5 205.5,106.5 Z"/></g>
<g><path style="opacity:1" fill="#c9c8e2" d="M 103.5,106.5 C 98.1667,106.5 92.8333,106.5 87.5,106.5C 87.5,116.833 87.5,127.167 87.5,137.5C 86.5056,127.013 86.1722,116.346 86.5,105.5C 92.358,105.178 98.0247,105.511 103.5,106.5 Z"/></g>
<g><path style="opacity:1" fill="#cdcbe4" d="M 205.5,106.5 C 196.167,106.5 186.833,106.5 177.5,106.5C 177.5,116.833 177.5,127.167 177.5,137.5C 176.506,127.013 176.172,116.346 176.5,105.5C 186.348,105.173 196.014,105.506 205.5,106.5 Z"/></g>
<g><path style="opacity:1" fill="#c6c3c3" d="M 154.5,87.5 C 155.497,106.326 155.83,125.326 155.5,144.5C 154.834,141.642 154.167,138.642 153.5,135.5C 152.833,154.996 152.167,174.329 151.5,193.5C 151.169,163.329 151.502,133.329 152.5,103.5C 152.168,113.855 152.501,124.188 153.5,134.5C 154.499,118.848 154.833,103.181 154.5,87.5 Z"/></g>
<g><path style="opacity:1" fill="#313293" d="M 191.5,112.5 C 194.187,112.336 196.854,112.503 199.5,113C 202.487,116.208 201.82,118.041 197.5,118.5C 195.5,118.5 193.5,118.5 191.5,118.5C 191.5,116.5 191.5,114.5 191.5,112.5 Z"/></g>
<g><path style="opacity:1" fill="#bebcdc" d="M 98.5,116.5 C 97.8333,123.5 97.1667,130.5 96.5,137.5C 96.3336,129.826 96.5003,122.159 97,114.5C 97.7172,115.044 98.2172,115.711 98.5,116.5 Z"/></g>
<g><path style="opacity:1" fill="#7776b7" d="M 191.5,112.5 C 191.5,114.5 191.5,116.5 191.5,118.5C 193.5,118.5 195.5,118.5 197.5,118.5C 195.393,119.468 193.059,119.802 190.5,119.5C 190.198,116.941 190.532,114.607 191.5,112.5 Z"/></g>
<g><path style="opacity:1" fill="#7f7ebb" d="M 122.5,137.5 C 121.833,131.167 121.167,124.833 120.5,118.5C 120.709,117.078 121.209,115.745 122,114.5C 122.5,122.159 122.666,129.826 122.5,137.5 Z"/></g>
<g><path style="opacity:1" fill="#8382bd" d="M 201.5,125.5 C 198.375,126.479 195.042,126.813 191.5,126.5C 191.815,130.371 191.482,134.038 190.5,137.5C 190.5,133.5 190.5,129.5 190.5,125.5C 194.167,125.5 197.833,125.5 201.5,125.5 Z"/></g>
<g><path style="opacity:1" fill="#353455" d="M 137.5,129.5 C 137.649,141.852 137.315,154.185 136.5,166.5C 136.167,166.5 135.833,166.5 135.5,166.5C 133.901,166.768 132.568,166.434 131.5,165.5C 132.833,165.5 134.167,165.5 135.5,165.5C 135.948,153.334 136.614,141.334 137.5,129.5 Z"/></g>
<g><path style="opacity:1" fill="#696c6c" d="M 135.5,166.5 C 135.833,166.5 136.167,166.5 136.5,166.5C 136.5,167.5 136.5,168.5 136.5,169.5C 138.288,169.215 139.955,169.548 141.5,170.5C 139.604,171.466 137.604,171.799 135.5,171.5C 135.5,169.833 135.5,168.167 135.5,166.5 Z"/></g>
<g><path style="opacity:0.953" fill="#0a0c0b" d="M 149.5,135.5 C 150.809,154.584 150.809,173.584 149.5,192.5C 147.271,191.423 144.937,190.756 142.5,190.5C 140.519,188.697 138.352,187.03 136,185.5C 135.501,181.514 135.334,177.514 135.5,173.5C 135.5,172.833 135.5,172.167 135.5,171.5C 137.604,171.799 139.604,171.466 141.5,170.5C 139.955,169.548 138.288,169.215 136.5,169.5C 136.5,168.5 136.5,167.5 136.5,166.5C 137.779,167.968 139.446,168.635 141.5,168.5C 142.209,157.514 142.543,146.514 142.5,135.5C 144.833,135.5 147.167,135.5 149.5,135.5 Z"/></g>
<g><path style="opacity:0.996" fill="#655d5b" d="M 149.5,-0.5 C 149.833,-0.5 150.167,-0.5 150.5,-0.5C 151.083,3.33697 151.75,7.17031 152.5,11C 151.893,14.1429 151.559,17.3095 151.5,20.5C 151.5,39.1667 151.5,57.8333 151.5,76.5C 152.041,85.4906 152.374,94.4906 152.5,103.5C 151.502,133.329 151.169,163.329 151.5,193.5C 151.265,194.097 150.765,194.43 150,194.5C 147.133,193.619 144.633,192.286 142.5,190.5C 144.937,190.756 147.271,191.423 149.5,192.5C 150.809,173.584 150.809,154.584 149.5,135.5C 149.5,135.167 149.5,134.833 149.5,134.5C 150.264,119.179 150.598,103.846 150.5,88.5C 150.5,87.8333 150.167,87.5 149.5,87.5C 149.5,83.8333 149.5,80.1667 149.5,76.5C 150.662,56.6709 150.829,36.6709 150,16.5C 149.667,15.1667 149.333,13.8333 149,12.5C 145.792,15.4868 143.959,14.8202 143.5,10.5C 145.234,6.70035 147.234,3.03369 149.5,-0.5 Z"/></g>
<g><path style="opacity:1" fill="#676565" d="M 134.5,186.5 C 133.306,187.777 131.64,188.444 129.5,188.5C 113.481,189.669 97.4813,191.003 81.5,192.5C 80.5084,192.672 79.8417,192.338 79.5,191.5C 97.7121,189.073 116.045,187.406 134.5,186.5 Z"/></g>
<g><path style="opacity:1" fill="#bfbcbd" d="M 135.5,173.5 C 135.334,177.514 135.501,181.514 136,185.5C 138.352,187.03 140.519,188.697 142.5,190.5C 127.57,192.463 112.57,193.963 97.5,195C 117.497,195.5 137.497,195.667 157.5,195.5C 157.5,195.833 157.5,196.167 157.5,196.5C 134.5,196.5 111.5,196.5 88.5,196.5C 89.6085,195.71 90.9419,195.21 92.5,195C 87.4078,194.763 82.4078,194.596 77.5,194.5C 78.9492,193.828 80.2825,193.161 81.5,192.5C 97.4813,191.003 113.481,189.669 129.5,188.5C 131.64,188.444 133.306,187.777 134.5,186.5C 134.182,181.968 134.515,177.634 135.5,173.5 Z"/></g>
<g><path style="opacity:1" fill="#a6a3ab" d="M 156.5,175.5 C 157.482,178.962 157.815,182.629 157.5,186.5C 158.833,186.5 160.167,186.5 161.5,186.5C 161.611,187.117 161.944,187.617 162.5,188C 182.892,189.539 203.225,191.373 223.5,193.5C 225.5,193.5 226.5,194.5 226.5,196.5C 203.5,196.5 180.5,196.5 157.5,196.5C 157.5,196.167 157.5,195.833 157.5,195.5C 173.503,195.667 189.503,195.5 205.5,195C 190.091,194.463 174.758,193.13 159.5,191C 158.667,190.167 157.833,189.333 157,188.5C 156.501,184.179 156.334,179.846 156.5,175.5 Z"/></g>
<g><path style="opacity:1" fill="#686669" d="M 161.5,186.5 C 171.438,187.734 181.438,188.4 191.5,188.5C 201.348,189.687 211.348,190.854 221.5,192C 222.416,192.278 223.082,192.778 223.5,193.5C 203.225,191.373 182.892,189.539 162.5,188C 161.944,187.617 161.611,187.117 161.5,186.5 Z"/></g>
<g><path style="opacity:1" fill="#f4f3f3" d="M 155.5,144.5 C 156.452,154.782 156.786,165.115 156.5,175.5C 156.334,179.846 156.501,184.179 157,188.5C 157.833,189.333 158.667,190.167 159.5,191C 174.758,193.13 190.091,194.463 205.5,195C 189.503,195.5 173.503,195.667 157.5,195.5C 137.497,195.667 117.497,195.5 97.5,195C 112.57,193.963 127.57,192.463 142.5,190.5C 144.633,192.286 147.133,193.619 150,194.5C 150.765,194.43 151.265,194.097 151.5,193.5C 152.167,174.329 152.833,154.996 153.5,135.5C 154.167,138.642 154.834,141.642 155.5,144.5 Z"/></g>
<g><path style="opacity:1" fill="#939191" d="M 79.5,191.5 C 79.8417,192.338 80.5084,192.672 81.5,192.5C 80.2825,193.161 78.9492,193.828 77.5,194.5C 82.4078,194.596 87.4078,194.763 92.5,195C 90.9419,195.21 89.6085,195.71 88.5,196.5C 83.8468,197.001 79.5135,196.334 75.5,194.5C 76.4363,193.026 77.7697,192.026 79.5,191.5 Z"/></g>
<g><path style="opacity:1" fill="#3e3d3e" d="M 75.5,194.5 C 79.5135,196.334 83.8468,197.001 88.5,196.5C 111.5,196.5 134.5,196.5 157.5,196.5C 180.5,196.5 203.5,196.5 226.5,196.5C 226.5,196.833 226.5,197.167 226.5,197.5C 176.331,197.168 126.331,197.501 76.5,198.5C 76.5,198.833 76.5,199.167 76.5,199.5C 75.8333,199.5 75.5,199.167 75.5,198.5C 75.5,197.167 75.5,195.833 75.5,194.5 Z"/></g>
<g><path style="opacity:0.944" fill="#060808" d="M 76.5,198.5 C 126.331,197.501 176.331,197.168 226.5,197.5C 226.672,198.492 226.338,199.158 225.5,199.5C 203.204,198.44 180.538,198.44 157.5,199.5C 179.492,200.333 201.492,200.833 223.5,201C 201.492,201.167 179.492,201.667 157.5,202.5C 171.33,203.686 185.164,203.686 199,202.5C 201.5,202.667 204,202.833 206.5,203C 205.263,203.232 204.263,203.732 203.5,204.5C 195.836,204.889 188.17,205.222 180.5,205.5C 172.123,205.562 163.957,205.562 156,205.5C 154.297,209.07 151.463,210.236 147.5,209C 146.743,207.488 145.743,206.154 144.5,205C 134.486,204.41 124.486,204.576 114.5,205.5C 111.482,205.296 108.482,204.963 105.5,204.5C 117.34,203.833 129.34,203.167 141.5,202.5C 121.511,201.5 101.511,201.167 81.5,201.5C 101.337,200.833 121.337,200.167 141.5,199.5C 119.844,198.5 98.1769,198.167 76.5,198.5 Z"/></g>
<g><path style="opacity:1" fill="#282a2b" d="M 76.5,199.5 C 76.5,199.167 76.5,198.833 76.5,198.5C 98.1769,198.167 119.844,198.5 141.5,199.5C 121.337,200.167 101.337,200.833 81.5,201.5C 79.4862,201.608 77.8195,200.942 76.5,199.5 Z"/></g>
<g><path style="opacity:1" fill="#1b1e26" d="M 225.5,199.5 C 225.5,200.167 225.5,200.833 225.5,201.5C 222.377,203.115 219.044,204.115 215.5,204.5C 211.667,203.595 207.667,203.595 203.5,204.5C 204.263,203.732 205.263,203.232 206.5,203C 204,202.833 201.5,202.667 199,202.5C 185.164,203.686 171.33,203.686 157.5,202.5C 179.492,201.667 201.492,201.167 223.5,201C 201.492,200.833 179.492,200.333 157.5,199.5C 180.538,198.44 203.204,198.44 225.5,199.5 Z"/></g>
<g><path style="opacity:1" fill="#1f2121" d="M 81.5,201.5 C 101.511,201.167 121.511,201.5 141.5,202.5C 129.34,203.167 117.34,203.833 105.5,204.5C 98.2325,203.178 90.8992,202.511 83.5,202.5C 82.5084,202.672 81.8417,202.338 81.5,201.5 Z"/></g>
<g><path style="opacity:1" fill="#f2f1f5" d="M 83.5,202.5 C 90.8992,202.511 98.2325,203.178 105.5,204.5C 108.482,204.963 111.482,205.296 114.5,205.5C 121.983,206.853 129.65,207.853 137.5,208.5C 138.209,209.404 139.209,209.737 140.5,209.5C 140.5,212.167 140.5,214.833 140.5,217.5C 139.167,217.5 137.833,217.5 136.5,217.5C 117.811,215.748 100.145,210.748 83.5,202.5 Z"/></g>
<g><path style="opacity:0.59" fill="#303290" d="M 215.5,204.5 C 197.573,209.647 179.24,211.98 160.5,211.5C 159.596,210.791 159.263,209.791 159.5,208.5C 166.773,208.437 173.773,207.437 180.5,205.5C 188.17,205.222 195.836,204.889 203.5,204.5C 207.667,203.595 211.667,203.595 215.5,204.5 Z"/></g>
<g><path style="opacity:0.998" fill="#5b5453" d="M 141.5,210.5 C 146.032,210.182 150.366,210.515 154.5,211.5C 151.302,210.964 148.635,211.631 146.5,213.5C 144.708,213.634 143.042,213.301 141.5,212.5C 141.5,211.833 141.5,211.167 141.5,210.5 Z"/></g>
<g><path style="opacity:1" fill="#c6bebc" d="M 154.5,211.5 C 152.365,213.369 149.698,214.036 146.5,213.5C 148.635,211.631 151.302,210.964 154.5,211.5 Z"/></g>
<g><path style="opacity:0.996" fill="#a2a0a8" d="M 137.5,208.5 C 139.483,208.157 140.817,208.824 141.5,210.5C 141.5,211.167 141.5,211.833 141.5,212.5C 141.5,214.167 141.5,215.833 141.5,217.5C 141.5,217.833 141.5,218.167 141.5,218.5C 139.585,218.784 137.919,218.451 136.5,217.5C 137.833,217.5 139.167,217.5 140.5,217.5C 140.5,214.833 140.5,212.167 140.5,209.5C 139.209,209.737 138.209,209.404 137.5,208.5 Z"/></g>
<g><path style="opacity:1" fill="#191b1c" d="M 180.5,205.5 C 173.773,207.437 166.773,208.437 159.5,208.5C 159.263,209.791 159.596,210.791 160.5,211.5C 160.5,216.167 160.5,220.833 160.5,225.5C 159.833,225.5 159.167,225.5 158.5,225.5C 154.476,225.052 150.476,224.386 146.5,223.5C 149.642,222.833 152.642,222.166 155.5,221.5C 155.5,220.833 155.5,220.167 155.5,219.5C 155.5,219.167 155.5,218.833 155.5,218.5C 151.03,217.514 146.363,217.181 141.5,217.5C 141.5,215.833 141.5,214.167 141.5,212.5C 143.042,213.301 144.708,213.634 146.5,213.5C 149.698,214.036 152.365,213.369 154.5,211.5C 150.366,210.515 146.032,210.182 141.5,210.5C 140.817,208.824 139.483,208.157 137.5,208.5C 129.65,207.853 121.983,206.853 114.5,205.5C 124.486,204.576 134.486,204.41 144.5,205C 145.743,206.154 146.743,207.488 147.5,209C 151.463,210.236 154.297,209.07 156,205.5C 163.957,205.562 172.123,205.562 180.5,205.5 Z"/></g>
<g><path style="opacity:1" fill="#827977" d="M 155.5,218.5 C 155.5,218.833 155.5,219.167 155.5,219.5C 151.988,218.945 148.988,219.612 146.5,221.5C 145.5,221.5 144.5,221.5 143.5,221.5C 143.5,220.5 143.5,219.5 143.5,218.5C 147.5,218.5 151.5,218.5 155.5,218.5 Z"/></g>
<g><path style="opacity:1" fill="#e7e6e5" d="M 155.5,219.5 C 155.5,220.167 155.5,220.833 155.5,221.5C 152.5,221.5 149.5,221.5 146.5,221.5C 148.988,219.612 151.988,218.945 155.5,219.5 Z"/></g>
<g><path style="opacity:1" fill="#303131" d="M 141.5,217.5 C 146.363,217.181 151.03,217.514 155.5,218.5C 151.5,218.5 147.5,218.5 143.5,218.5C 143.5,219.5 143.5,220.5 143.5,221.5C 144.5,221.5 145.5,221.5 146.5,221.5C 149.5,221.5 152.5,221.5 155.5,221.5C 152.642,222.166 149.642,222.833 146.5,223.5C 150.476,224.386 154.476,225.052 158.5,225.5C 153.651,226.166 148.651,226.833 143.5,227.5C 144.325,228.386 145.325,228.719 146.5,228.5C 146.5,228.833 146.5,229.167 146.5,229.5C 144.833,229.5 143.167,229.5 141.5,229.5C 141.5,225.833 141.5,222.167 141.5,218.5C 141.5,218.167 141.5,217.833 141.5,217.5 Z"/></g>
<g><path style="opacity:0.875" fill="#817f7f" d="M 158.5,225.5 C 159.167,225.5 159.833,225.5 160.5,225.5C 160.5,226.167 160.5,226.833 160.5,227.5C 158.5,228.167 156.5,228.833 154.5,229.5C 153.666,228.252 152.333,227.585 150.5,227.5C 148.955,227.511 147.622,227.844 146.5,228.5C 145.325,228.719 144.325,228.386 143.5,227.5C 148.651,226.833 153.651,226.166 158.5,225.5 Z"/></g>
<g><path style="opacity:1" fill="#eceae9" d="M 154.5,229.5 C 151.833,229.5 149.167,229.5 146.5,229.5C 146.5,229.167 146.5,228.833 146.5,228.5C 147.622,227.844 148.955,227.511 150.5,227.5C 152.333,227.585 153.666,228.252 154.5,229.5 Z"/></g>
<g><path style="opacity:1" fill="#1a1b1b" d="M 160.5,227.5 C 160.5,229.5 160.5,231.5 160.5,233.5C 159.244,233.904 158.077,234.571 157,235.5C 151.823,234.805 146.657,234.139 141.5,233.5C 141.5,232.167 141.5,230.833 141.5,229.5C 143.167,229.5 144.833,229.5 146.5,229.5C 149.167,229.5 151.833,229.5 154.5,229.5C 156.5,228.833 158.5,228.167 160.5,227.5 Z"/></g>
<g><path style="opacity:1" fill="#e8e5e5" d="M 155.5,238.5 C 152.5,239.833 149.5,239.833 146.5,238.5C 147.514,237.235 149.014,236.569 151,236.5C 152.986,236.569 154.486,237.235 155.5,238.5 Z"/></g>
<g><path style="opacity:1" fill="#696867" d="M 141.5,233.5 C 146.657,234.139 151.823,234.805 157,235.5C 158.077,234.571 159.244,233.904 160.5,233.5C 160.5,235.167 160.5,236.833 160.5,238.5C 158.833,238.5 157.167,238.5 155.5,238.5C 154.486,237.235 152.986,236.569 151,236.5C 149.014,236.569 147.514,237.235 146.5,238.5C 144.833,238.5 143.167,238.5 141.5,238.5C 141.5,236.833 141.5,235.167 141.5,233.5 Z"/></g>
<g><path style="opacity:1" fill="#1c1e1e" d="M 141.5,238.5 C 143.167,238.5 144.833,238.5 146.5,238.5C 149.5,239.833 152.5,239.833 155.5,238.5C 157.167,238.5 158.833,238.5 160.5,238.5C 160.5,239.167 160.5,239.833 160.5,240.5C 160.033,243.297 158.367,244.631 155.5,244.5C 152.167,244.5 148.833,244.5 145.5,244.5C 142.741,244.067 141.408,242.4 141.5,239.5C 141.5,239.167 141.5,238.833 141.5,238.5 Z"/></g>
<g><path style="opacity:0.796" fill="#4d4d4f" d="M 140.5,239.5 C 140.833,239.5 141.167,239.5 141.5,239.5C 141.408,242.4 142.741,244.067 145.5,244.5C 144.624,244.369 143.957,244.702 143.5,245.5C 144.602,246.176 145.602,246.842 146.5,247.5C 144.833,247.5 143.167,247.5 141.5,247.5C 141.36,249.124 142.027,250.29 143.5,251C 148.894,252.363 154.227,252.363 159.5,251C 160.38,249.644 160.714,248.144 160.5,246.5C 158.833,246.5 157.167,246.5 155.5,246.5C 155.5,245.833 155.5,245.167 155.5,244.5C 158.367,244.631 160.033,243.297 160.5,240.5C 161.645,244.311 161.812,248.311 161,252.5C 157.363,253.878 155.863,256.545 156.5,260.5C 144.124,260.161 143.791,259.161 155.5,257.5C 151.585,257.007 147.919,256.007 144.5,254.5C 143.279,253.972 142.113,253.305 141,252.5C 139.896,248.05 139.729,243.717 140.5,239.5 Z"/></g>
<g><path style="opacity:1" fill="#101312" d="M 155.5,246.5 C 157.167,246.5 158.833,246.5 160.5,246.5C 160.714,248.144 160.38,249.644 159.5,251C 154.227,252.363 148.894,252.363 143.5,251C 142.027,250.29 141.36,249.124 141.5,247.5C 143.167,247.5 144.833,247.5 146.5,247.5C 149.609,247.736 152.609,247.403 155.5,246.5 Z"/></g>
<g><path style="opacity:1" fill="#9d9594" d="M 145.5,244.5 C 148.833,244.5 152.167,244.5 155.5,244.5C 155.5,245.167 155.5,245.833 155.5,246.5C 152.609,247.403 149.609,247.736 146.5,247.5C 145.602,246.842 144.602,246.176 143.5,245.5C 143.957,244.702 144.624,244.369 145.5,244.5 Z"/></g>
<g><path style="opacity:1" fill="#181b1a" d="M 144.5,254.5 C 147.919,256.007 151.585,257.007 155.5,257.5C 143.791,259.161 144.124,260.161 156.5,260.5C 156.5,261.167 156.5,261.833 156.5,262.5C 153.592,263.569 150.592,263.736 147.5,263C 146.008,261.009 145.008,258.842 144.5,256.5C 144.5,255.833 144.5,255.167 144.5,254.5 Z"/></g>
<g><path style="opacity:0.898" fill="#484752" d="M 144.5,256.5 C 145.008,258.842 146.008,261.009 147.5,263C 150.592,263.736 153.592,263.569 156.5,262.5C 156.972,265.358 155.972,267.358 153.5,268.5C 151.5,268.5 149.5,268.5 147.5,268.5C 144.769,265.073 143.769,261.073 144.5,256.5 Z"/></g>
</svg>
